<svg xmlns="http://www.w3.org/2000/svg" xmlns:xlink="http://www.w3.org/1999/xlink" width="2000" zoomAndPan="magnify" viewBox="0 0 1500 1499.999933" height="2000" preserveAspectRatio="xMidYMid meet" version="1.0"><defs><clipPath id="6a4e4aaadc"><path d="M 529 758 L 816 758 L 816 948 L 529 948 Z M 529 758 " clip-rule="nonzero"/></clipPath><clipPath id="8f449daf92"><path d="M 541.484375 1011.589844 L 470.191406 566.515625 L 958.21875 488.34375 L 1029.511719 933.417969 Z M 541.484375 1011.589844 " clip-rule="nonzero"/></clipPath><clipPath id="1ef22eedfa"><path d="M 541.484375 1011.589844 L 470.191406 566.515625 L 958.21875 488.34375 L 1029.511719 933.417969 Z M 541.484375 1011.589844 " clip-rule="nonzero"/></clipPath><clipPath id="26b91d0e36"><path d="M 546 778 L 797 778 L 797 936 L 546 936 Z M 546 778 " clip-rule="nonzero"/></clipPath><clipPath id="45c1db56b2"><path d="M 541.484375 1011.589844 L 470.191406 566.515625 L 958.21875 488.34375 L 1029.511719 933.417969 Z M 541.484375 1011.589844 " clip-rule="nonzero"/></clipPath><clipPath id="5eb7702161"><path d="M 541.484375 1011.589844 L 470.191406 566.515625 L 958.21875 488.34375 L 1029.511719 933.417969 Z M 541.484375 1011.589844 " clip-rule="nonzero"/></clipPath><clipPath id="350afd6ff3"><path d="M 600 602 L 878 602 L 878 855 L 600 855 Z M 600 602 " clip-rule="nonzero"/></clipPath><clipPath id="1d36032ded"><path d="M 541.484375 1011.589844 L 470.191406 566.515625 L 958.21875 488.34375 L 1029.511719 933.417969 Z M 541.484375 1011.589844 " clip-rule="nonzero"/></clipPath><clipPath id="1a18b8d3b4"><path d="M 541.484375 1011.589844 L 470.191406 566.515625 L 958.21875 488.34375 L 1029.511719 933.417969 Z M 541.484375 1011.589844 " clip-rule="nonzero"/></clipPath><clipPath id="3c9bc9a314"><path d="M 784 511 L 973 511 L 973 789 L 784 789 Z M 784 511 " clip-rule="nonzero"/></clipPath><clipPath id="6f3cf2b371"><path d="M 541.484375 1011.589844 L 470.191406 566.515625 L 958.21875 488.34375 L 1029.511719 933.417969 Z M 541.484375 1011.589844 " clip-rule="nonzero"/></clipPath><clipPath id="f253a46f3e"><path d="M 541.484375 1011.589844 L 470.191406 566.515625 L 958.21875 488.34375 L 1029.511719 933.417969 Z M 541.484375 1011.589844 " clip-rule="nonzero"/></clipPath><clipPath id="0809b89fac"><path d="M 557 794 L 786 794 L 786 926 L 557 926 Z M 557 794 " clip-rule="nonzero"/></clipPath><clipPath id="08b8b439ec"><path d="M 541.484375 1011.589844 L 470.191406 566.515625 L 958.21875 488.34375 L 1029.511719 933.417969 Z M 541.484375 1011.589844 " clip-rule="nonzero"/></clipPath><clipPath id="4e83bf1168"><path d="M 541.484375 1011.589844 L 470.191406 566.515625 L 958.21875 488.34375 L 1029.511719 933.417969 Z M 541.484375 1011.589844 " clip-rule="nonzero"/></clipPath><clipPath id="a3b20f5e70"><path d="M 623 622 L 864 622 L 864 839 L 623 839 Z M 623 622 " clip-rule="nonzero"/></clipPath><clipPath id="c776efce8e"><path d="M 541.484375 1011.589844 L 470.191406 566.515625 L 958.21875 488.34375 L 1029.511719 933.417969 Z M 541.484375 1011.589844 " clip-rule="nonzero"/></clipPath><clipPath id="93d42b3e4f"><path d="M 541.484375 1011.589844 L 470.191406 566.515625 L 958.21875 488.34375 L 1029.511719 933.417969 Z M 541.484375 1011.589844 " clip-rule="nonzero"/></clipPath><clipPath id="53d6e8ef4b"><path d="M 637 637 L 853 637 L 853 827 L 637 827 Z M 637 637 " clip-rule="nonzero"/></clipPath><clipPath id="817cb8d6d1"><path d="M 541.484375 1011.589844 L 470.191406 566.515625 L 958.21875 488.34375 L 1029.511719 933.417969 Z M 541.484375 1011.589844 " clip-rule="nonzero"/></clipPath><clipPath id="2f395df47f"><path d="M 541.484375 1011.589844 L 470.191406 566.515625 L 958.21875 488.34375 L 1029.511719 933.417969 Z M 541.484375 1011.589844 " clip-rule="nonzero"/></clipPath><clipPath id="b4729b294f"><path d="M 807 532 L 958 532 L 958 772 L 807 772 Z M 807 532 " clip-rule="nonzero"/></clipPath><clipPath id="26a6f2619a"><path d="M 541.484375 1011.589844 L 470.191406 566.515625 L 958.21875 488.34375 L 1029.511719 933.417969 Z M 541.484375 1011.589844 " clip-rule="nonzero"/></clipPath><clipPath id="e0835b790c"><path d="M 541.484375 1011.589844 L 470.191406 566.515625 L 958.21875 488.34375 L 1029.511719 933.417969 Z M 541.484375 1011.589844 " clip-rule="nonzero"/></clipPath><clipPath id="be7c756922"><path d="M 825 547 L 948 547 L 948 762 L 825 762 Z M 825 547 " clip-rule="nonzero"/></clipPath><clipPath id="e0844fbe9f"><path d="M 541.484375 1011.589844 L 470.191406 566.515625 L 958.21875 488.34375 L 1029.511719 933.417969 Z M 541.484375 1011.589844 " clip-rule="nonzero"/></clipPath><clipPath id="03135c402d"><path d="M 541.484375 1011.589844 L 470.191406 566.515625 L 958.21875 488.34375 L 1029.511719 933.417969 Z M 541.484375 1011.589844 " clip-rule="nonzero"/></clipPath></defs><g clip-path="url(#6a4e4aaadc)"><g clip-path="url(#8f449daf92)"><g clip-path="url(#1ef22eedfa)"><path fill="#7f7b70" d="M 793.1875 947.921875 L 529.308594 871.828125 L 553.515625 758.398438 L 815.582031 900.542969 Z M 793.1875 947.921875 " fill-opacity="1" fill-rule="nonzero"/></g></g></g><g clip-path="url(#26b91d0e36)"><g clip-path="url(#45c1db56b2)"><g clip-path="url(#5eb7702161)"><path fill="#fdf9ee" d="M 786.46875 935.535156 L 546.160156 861.3125 L 562.75 778.203125 L 796.65625 903.261719 Z M 786.46875 935.535156 " fill-opacity="1" fill-rule="nonzero"/></g></g></g><g clip-path="url(#350afd6ff3)"><g clip-path="url(#1d36032ded)"><g clip-path="url(#1a18b8d3b4)"><path fill="#7f7b70" d="M 847.992188 854.359375 L 600.277344 686.796875 L 684.589844 602.878906 L 877.644531 811.261719 Z M 847.992188 854.359375 " fill-opacity="1" fill-rule="nonzero"/></g></g></g><g clip-path="url(#3c9bc9a314)"><g clip-path="url(#6f3cf2b371)"><g clip-path="url(#f253a46f3e)"><path fill="#7f7b70" d="M 914.179688 788.34375 L 784.148438 532.414062 L 898.683594 511.8125 L 972.535156 770.011719 Z M 914.179688 788.34375 " fill-opacity="1" fill-rule="nonzero"/></g></g></g><g clip-path="url(#0809b89fac)"><g clip-path="url(#08b8b439ec)"><g clip-path="url(#4e83bf1168)"><path fill="#fdf9ee" d="M 778.171875 925.035156 L 557.75 854.707031 L 567.023438 794.1875 L 785.136719 905.34375 Z M 778.171875 925.035156 " fill-opacity="1" fill-rule="nonzero"/></g></g></g><g clip-path="url(#a3b20f5e70)"><g clip-path="url(#c776efce8e)"><g clip-path="url(#93d42b3e4f)"><path fill="#fdf9ee" d="M 841.488281 838.074219 L 623.382812 683.964844 L 687.359375 622.328125 L 863.386719 812.359375 Z M 841.488281 838.074219 " fill-opacity="1" fill-rule="nonzero"/></g></g></g><g clip-path="url(#53d6e8ef4b)"><g clip-path="url(#817cb8d6d1)"><g clip-path="url(#2f395df47f)"><path fill="#fdf9ee" d="M 838.136719 826.769531 L 637.40625 683.300781 L 687.003906 637.246094 L 852.898438 813.199219 Z M 838.136719 826.769531 " fill-opacity="1" fill-rule="nonzero"/></g></g></g><g clip-path="url(#b4729b294f)"><g clip-path="url(#26a6f2619a)"><g clip-path="url(#e0835b790c)"><path fill="#fdf9ee" d="M 920.070312 771.878906 L 807.476562 542.90625 L 888.082031 532.0625 L 957.898438 762.34375 Z M 920.070312 771.878906 " fill-opacity="1" fill-rule="nonzero"/></g></g></g><g clip-path="url(#be7c756922)"><g clip-path="url(#e0844fbe9f)"><g clip-path="url(#03135c402d)"><path fill="#fdf9ee" d="M 925.984375 761.777344 L 825.542969 554.800781 L 879 547.359375 L 947.410156 755.449219 C 947.410156 755.449219 926.785156 761.832031 925.984375 761.777344 Z M 925.984375 761.777344 " fill-opacity="1" fill-rule="nonzero"/></g></g></g></svg>