<svg xmlns="http://www.w3.org/2000/svg" xmlns:xlink="http://www.w3.org/1999/xlink" width="2000" zoomAndPan="magnify" viewBox="0 0 1500 1499.999933" height="2000" preserveAspectRatio="xMidYMid meet" version="1.0"><defs><clipPath id="80a7c4ad58"><path d="M 515 493.902344 L 998 493.902344 L 998 930 L 515 930 Z M 515 493.902344 " clip-rule="nonzero"/></clipPath></defs><g clip-path="url(#80a7c4ad58)"><path fill="#fdf9ee" d="M 975.453125 463.90625 C 968.125 502.621094 958.765625 541.15625 940.484375 576.292969 C 931.867188 592.546875 922.132812 608.105469 911.28125 622.960938 C 900.433594 637.820312 888.578125 651.828125 875.71875 664.984375 C 827.488281 714.851562 754.5 756.558594 682.789062 737.941406 C 676.476562 736.304688 669.648438 733.800781 666.722656 727.457031 C 663.792969 721.117188 664.992188 713.714844 666.949219 707.464844 C 671.332031 693.519531 683.320312 682.660156 695.972656 676.105469 C 723.128906 662.027344 757.625 670.644531 775.453125 695.476562 C 794.507812 721.996094 792.824219 760.804688 783.597656 790.601562 C 781.234375 798.074219 778.335938 805.328125 774.898438 812.371094 C 771.460938 819.414062 767.527344 826.164062 763.089844 832.625 C 758.65625 839.085938 753.769531 845.183594 748.433594 850.921875 C 743.097656 856.660156 737.367188 861.976562 731.242188 866.867188 C 701.464844 890.714844 663.171875 903.550781 625.378906 906.3125 C 607.25 907.617188 588.210938 907.449219 570.339844 903.808594 C 557.035156 901.121094 540.480469 895.828125 537.765625 880.703125 C 535.171875 866.320312 513.234375 872.402344 515.828125 886.769531 C 522.730469 925.109375 574.769531 929.324219 605.445312 929.660156 C 645.375 930.085938 685.851562 920.980469 720.746094 901.214844 C 785.738281 864.363281 831.496094 781.363281 806.203125 706.8125 C 793.671875 669.808594 757.339844 643.09375 717.542969 646.75 C 681.347656 650.117188 644.011719 678.152344 642.339844 716.761719 C 640.292969 764.035156 700.324219 767.054688 734.503906 763.71875 C 776.726562 759.574219 816.503906 742.613281 850.445312 717.429688 C 888.113281 689.46875 919.789062 653.152344 945.035156 613.734375 C 973.253906 569.738281 987.726562 520.996094 997.375 469.972656 C 1000.089844 455.667969 978.152344 449.523438 975.4375 463.90625 Z M 975.453125 463.90625 " fill-opacity="1" fill-rule="nonzero"/></g><path fill="#fdf9ee" d="M 598.921875 838.4375 C 582.5 844.046875 566.550781 850.78125 551.078125 858.640625 C 535.605469 866.503906 520.761719 875.40625 506.542969 885.359375 C 502.433594 888.242188 499.792969 893.113281 501.308594 898.210938 C 511.027344 930.90625 523.601562 962.460938 539.039062 992.878906 C 545.671875 1005.957031 565.300781 994.394531 558.761719 981.394531 C 544.25 952.726562 532.441406 922.984375 523.339844 892.171875 L 518.105469 905.007812 C 531.476562 895.5625 545.445312 887.105469 560.007812 879.628906 C 574.570312 872.152344 589.585938 865.734375 605.050781 860.371094 C 618.8125 855.640625 612.894531 833.640625 598.980469 838.4375 Z M 598.921875 838.4375 " fill-opacity="1" fill-rule="nonzero"/></svg>