<svg xmlns="http://www.w3.org/2000/svg" xmlns:xlink="http://www.w3.org/1999/xlink" width="2000" zoomAndPan="magnify" viewBox="0 0 1500 1499.999933" height="2000" preserveAspectRatio="xMidYMid meet" version="1.0"><defs><g/><clipPath id="5a3ff4420f"><path d="M 412 603.382812 L 456 603.382812 L 456 647 L 412 647 Z M 412 603.382812 " clip-rule="nonzero"/></clipPath><clipPath id="ca51114f47"><path d="M 456 634 L 510.6875 634 L 510.6875 689 L 456 689 Z M 456 634 " clip-rule="nonzero"/></clipPath><clipPath id="43b2ffad80"><path d="M 0.199219 153 L 334 153 L 334 282 L 0.199219 282 Z M 0.199219 153 " clip-rule="nonzero"/></clipPath><clipPath id="750f817167"><rect x="0" width="931" y="0" height="324"/></clipPath></defs><path fill="#fcf9f0" d="M 469.144531 702.632812 C 469.023438 702.53125 468.886719 702.445312 468.746094 702.371094 L 468.640625 702.320312 C 468.605469 702.300781 468.570312 702.285156 468.535156 702.273438 L 468.425781 702.230469 C 468.386719 702.214844 468.371094 702.210938 468.339844 702.203125 C 459.265625 699.199219 450.226562 696.066406 441.265625 692.730469 C 434.464844 690.230469 428.816406 684.789062 426.109375 678.0625 C 425.902344 677.5625 425.714844 677.046875 425.539062 676.535156 C 423.21875 669.617188 420.222656 660.433594 417.910156 653.476562 C 417.652344 652.691406 416.882812 650.429688 416.640625 649.691406 C 416.640625 649.691406 416.53125 649.375 416.53125 649.375 C 416.304688 648.605469 415.789062 647.914062 415.078125 647.503906 C 413.9375 646.828125 412.398438 646.949219 411.378906 647.800781 C 410.992188 648.117188 410.679688 648.53125 410.476562 648.988281 C 409.53125 651.34375 408.59375 653.746094 407.675781 656.113281 C 405.160156 662.628906 402.5625 669.46875 400.117188 676.007812 C 398.960938 679.085938 397.21875 681.941406 394.996094 684.371094 C 392.5 687.105469 389.40625 689.296875 385.992188 690.734375 C 385.160156 691.089844 383.230469 691.792969 382.339844 692.140625 C 374.996094 694.941406 365.4375 698.5625 358.128906 701.371094 C 356.074219 702.203125 355.460938 704.832031 356.882812 706.511719 C 357.253906 706.957031 357.769531 707.289062 358.316406 707.476562 C 367.277344 710.660156 376.421875 713.796875 385.417969 716.871094 C 387.03125 717.429688 388.597656 718.140625 390.082031 719 C 394.566406 721.585938 398.246094 725.550781 400.496094 730.214844 C 400.824219 730.894531 401.128906 731.59375 401.398438 732.300781 C 404.738281 741.082031 408.003906 749.980469 411.085938 758.851562 C 411.15625 759.046875 411.253906 759.347656 411.332031 759.535156 C 411.886719 760.796875 413.433594 761.292969 414.644531 760.667969 C 415.054688 760.460938 415.398438 760.125 415.628906 759.726562 L 415.683594 759.617188 C 415.707031 759.582031 415.722656 759.546875 415.738281 759.507812 L 415.785156 759.394531 L 415.851562 759.234375 C 419.351562 750.417969 423.015625 741.496094 426.445312 732.664062 C 427.058594 731.105469 427.8125 729.609375 428.699219 728.195312 C 430.90625 724.660156 433.957031 721.664062 437.527344 719.515625 C 438.683594 718.8125 439.902344 718.207031 441.152344 717.6875 C 449.660156 714.417969 458.304688 710.917969 466.738281 707.433594 L 467.96875 706.929688 L 468.277344 706.800781 L 468.433594 706.738281 C 468.808594 706.589844 469.164062 706.351562 469.429688 706.03125 C 470.28125 705.042969 470.15625 703.457031 469.144531 702.632812 Z M 469.144531 702.632812 " fill-opacity="1" fill-rule="nonzero"/><g clip-path="url(#5a3ff4420f)"><path fill="#fcf9f0" d="M 413.042969 626.742188 C 413.183594 626.855469 413.351562 626.941406 413.519531 627 C 416.074219 627.867188 418.644531 628.699219 421.214844 629.539062 C 422.414062 629.933594 423.570312 630.472656 424.636719 631.160156 C 427.054688 632.703125 429.003906 634.996094 430.144531 637.632812 C 430.523438 638.53125 430.828125 639.460938 431.160156 640.378906 C 431.835938 642.285156 432.480469 644.207031 433.101562 646.132812 C 433.160156 646.308594 433.261719 646.472656 433.402344 646.605469 C 433.953125 647.128906 434.875 646.976562 435.234375 646.316406 C 436.324219 643.773438 437.394531 641.21875 438.429688 638.652344 C 439.917969 634.929688 442.832031 631.828125 446.433594 630.078125 C 446.640625 629.984375 446.855469 629.878906 447.070312 629.789062 C 448.449219 629.203125 451.28125 627.972656 452.699219 627.351562 L 454.503906 626.566406 C 454.574219 626.539062 454.683594 626.492188 454.753906 626.457031 C 455.371094 626.164062 455.464844 625.292969 454.929688 624.878906 C 454.839844 624.808594 454.730469 624.757812 454.625 624.722656 C 452.050781 623.902344 449.496094 623.023438 446.96875 622.082031 C 443.019531 620.636719 439.828125 617.382812 438.417969 613.433594 C 438.308594 613.136719 438.210938 612.832031 438.117188 612.53125 C 437.328125 609.953125 436.527344 607.269531 435.652344 604.730469 C 435.042969 603.382812 433.128906 603.46875 432.609375 604.835938 C 431.867188 606.675781 431.09375 608.722656 430.375 610.582031 C 429.933594 611.71875 429.507812 612.996094 428.9375 614.074219 C 427.300781 617.242188 424.507812 619.804688 421.1875 621.125 C 418.945312 622.007812 415.710938 623.238281 413.480469 624.128906 C 413.25 624.21875 413.039062 624.355469 412.867188 624.550781 C 412.292969 625.179688 412.375 626.214844 413.042969 626.742188 Z M 413.042969 626.742188 " fill-opacity="1" fill-rule="nonzero"/></g><g clip-path="url(#ca51114f47)"><path fill="#fcf9f0" d="M 509.492188 660.882812 C 506.234375 659.882812 503.003906 658.800781 499.8125 657.605469 C 494.894531 655.804688 490.953125 651.699219 489.289062 646.753906 C 489.011719 645.964844 488.515625 644.105469 488.261719 643.265625 C 487.5625 640.851562 486.84375 638.449219 486.074219 636.058594 C 486.050781 635.984375 486.015625 635.886719 485.980469 635.804688 C 485.070312 633.804688 482.238281 633.949219 481.488281 635.992188 C 480.21875 639.117188 479 642.265625 477.800781 645.417969 C 477.535156 646.109375 477.234375 646.785156 476.890625 647.441406 C 475.183594 650.734375 472.480469 653.503906 469.210938 655.257812 C 468.71875 655.523438 468.210938 655.765625 467.699219 655.988281 C 467.316406 656.144531 465.332031 656.933594 464.886719 657.101562 C 463.125 657.792969 459.339844 659.273438 457.652344 659.96875 C 456.824219 660.34375 456.292969 661.261719 456.375 662.167969 C 456.433594 663.03125 457.050781 663.824219 457.875 664.085938 C 461.082031 665.144531 464.308594 666.148438 467.53125 667.160156 C 469.023438 667.632812 470.464844 668.285156 471.789062 669.125 C 474.8125 671.015625 477.246094 673.855469 478.664062 677.128906 C 478.777344 677.402344 478.894531 677.683594 478.996094 677.960938 C 480.15625 681.128906 481.21875 684.332031 482.226562 687.554688 C 482.25 687.628906 482.285156 687.757812 482.3125 687.832031 C 482.746094 689.007812 484.308594 689.25 485.117188 688.3125 C 485.253906 688.160156 485.355469 687.96875 485.429688 687.78125 L 485.554688 687.5 C 486.863281 684.496094 488.191406 681.496094 489.429688 678.46875 C 489.71875 677.769531 490.046875 677.085938 490.410156 676.425781 C 490.773438 675.761719 491.171875 675.121094 491.605469 674.507812 C 493.726562 671.492188 496.667969 669.0625 500.027344 667.542969 C 503.078125 666.203125 506.363281 664.675781 509.402344 663.308594 L 509.472656 663.277344 L 509.523438 663.257812 C 509.703125 663.175781 509.871094 663.054688 510 662.902344 C 510.566406 662.238281 510.308594 661.175781 509.492188 660.882812 Z M 509.492188 660.882812 " fill-opacity="1" fill-rule="nonzero"/></g><g transform="matrix(1, 0, 0, 1, 289, 601)"><g clip-path="url(#750f817167)"><g clip-path="url(#43b2ffad80)"><g fill="#fcf9f0" fill-opacity="1"><g transform="translate(0.874714, 255.923634)"><g><path d="M 268.78125 -102.453125 C 277.65625 -102.453125 285.925781 -100.796875 293.59375 -97.484375 C 301.269531 -94.179688 308.039062 -89.59375 313.90625 -83.71875 C 319.769531 -77.851562 324.359375 -71.046875 327.671875 -63.296875 C 330.984375 -55.546875 332.640625 -47.234375 332.640625 -38.359375 C 332.640625 -29.640625 330.984375 -21.40625 327.671875 -13.65625 C 324.359375 -5.90625 319.769531 0.898438 313.90625 6.765625 C 308.039062 12.640625 301.269531 17.226562 293.59375 20.53125 C 285.925781 23.84375 277.65625 25.5 268.78125 25.5 C 258.25 25.5 248.539062 23.203125 239.65625 18.609375 C 230.78125 14.023438 223.410156 7.820312 217.546875 0 L 0 0 L 63.859375 -63.859375 L 209.875 -63.859375 C 213.1875 -71.535156 217.773438 -78.269531 223.640625 -84.0625 C 229.503906 -89.851562 236.3125 -94.363281 244.0625 -97.59375 C 251.8125 -100.832031 260.050781 -102.453125 268.78125 -102.453125 Z M 268.78125 -102.453125 "/></g></g></g></g><g fill="#fcf9f0" fill-opacity="1"><g transform="translate(340.064096, 255.923634)"><g><path d="M 70.640625 -159.78125 L 38.59375 -127.953125 L 6.546875 -159.78125 L 38.59375 -191.828125 Z M 6.546875 -63.859375 L 70.40625 -127.953125 L 70.40625 0 L 6.546875 63.859375 Z M 6.546875 -63.859375 "/></g></g></g><g fill="#fcf9f0" fill-opacity="1"><g transform="translate(417.019237, 255.923634)"><g><path d="M 6.546875 -63.859375 L 70.40625 -127.953125 L 70.40625 0 L 6.546875 63.859375 Z M 6.546875 -63.859375 "/></g></g></g><g fill="#fcf9f0" fill-opacity="1"><g transform="translate(493.974377, 255.923634)"><g><path d="M 6.546875 -127.953125 L 70.40625 -192.046875 L 70.40625 0 L 6.546875 0 Z M 6.546875 -127.953125 "/></g></g></g><g fill="#fcf9f0" fill-opacity="1"><g transform="translate(570.929518, 255.923634)"><g><path d="M 70.40625 -127.953125 C 79.28125 -127.953125 87.59375 -126.296875 95.34375 -122.984375 C 103.09375 -119.679688 109.898438 -115.054688 115.765625 -109.109375 C 121.640625 -103.171875 126.226562 -96.363281 129.53125 -88.6875 C 132.84375 -81.019531 134.5 -72.742188 134.5 -63.859375 L 134.5 0 L 70.40625 63.859375 L 70.40625 0 L 6.546875 0 L 6.546875 -63.859375 C 6.546875 -72.742188 8.195312 -81.019531 11.5 -88.6875 C 14.8125 -96.363281 19.398438 -103.171875 25.265625 -109.109375 C 31.140625 -115.054688 37.953125 -119.679688 45.703125 -122.984375 C 53.453125 -126.296875 61.6875 -127.953125 70.40625 -127.953125 Z M 70.40625 -127.953125 "/></g></g></g><g fill="#fcf9f0" fill-opacity="1"><g transform="translate(705.431761, 255.923634)"><g><path d="M -2.03125 0 C -5.945312 0 -9.21875 -1.316406 -11.84375 -3.953125 C -14.476562 -6.585938 -15.796875 -9.859375 -15.796875 -13.765625 L -15.796875 -50.09375 C -15.796875 -54.007812 -14.476562 -57.28125 -11.84375 -59.90625 C -9.21875 -62.539062 -5.945312 -63.859375 -2.03125 -63.859375 L 77.1875 -63.859375 L 77.1875 0 Z M -2.03125 0 "/></g></g></g><g fill="#fcf9f0" fill-opacity="1"><g transform="translate(782.612575, 255.923634)"><g><path d="M 49.203125 -141.046875 L 17.15625 -172.859375 L 49.203125 -204.90625 L 81.234375 -172.859375 Z M -2.03125 0 C -5.945312 0 -9.21875 -1.316406 -11.84375 -3.953125 C -14.476562 -6.585938 -15.796875 -9.859375 -15.796875 -13.765625 L -15.796875 -50.09375 C -15.796875 -54.007812 -14.476562 -57.28125 -11.84375 -59.90625 C -9.21875 -62.539062 -5.945312 -63.859375 -2.03125 -63.859375 L 13.09375 -63.859375 L 13.09375 -127.953125 L 13.984375 -127.953125 C 25.421875 -127.953125 35.050781 -126.785156 42.875 -124.453125 C 50.695312 -122.117188 57.351562 -119.070312 62.84375 -115.3125 C 68.34375 -111.550781 73.160156 -107.375 77.296875 -102.78125 C 81.429688 -98.195312 85.414062 -93.609375 89.25 -89.015625 C 93.09375 -84.429688 97.269531 -80.257812 101.78125 -76.5 C 106.289062 -72.738281 111.664062 -69.691406 117.90625 -67.359375 C 124.15625 -65.023438 131.867188 -63.859375 141.046875 -63.859375 L 141.046875 0 Z M -2.03125 0 "/></g></g></g></g></g></svg>