<svg xmlns="http://www.w3.org/2000/svg" xmlns:xlink="http://www.w3.org/1999/xlink" width="2000" zoomAndPan="magnify" viewBox="0 0 1500 1499.999933" height="2000" preserveAspectRatio="xMidYMid meet" version="1.0"><defs><clipPath id="2432bdaf12"><path d="M 251.722656 361.453125 L 1248 361.453125 L 1248 1138 L 251.722656 1138 Z M 251.722656 361.453125 " clip-rule="nonzero"/></clipPath></defs><g clip-path="url(#2432bdaf12)"><path fill="#fcf9f0" d="M 266.683594 765.460938 L 266.683594 767.457031 L 264.691406 771.445312 L 264.691406 774.441406 L 261.699219 781.421875 L 261.699219 784.414062 L 260.699219 785.414062 L 260.699219 788.40625 L 258.703125 793.394531 L 258.703125 797.382812 L 257.707031 798.378906 L 257.707031 802.371094 L 256.710938 803.367188 L 256.710938 807.359375 L 255.710938 808.355469 L 254.714844 820.328125 L 253.71875 821.324219 L 253.71875 829.304688 L 252.71875 830.300781 L 252.71875 840.277344 L 251.722656 841.277344 L 251.722656 1035.796875 L 252.71875 1036.792969 L 253.71875 1048.765625 L 254.714844 1049.761719 L 254.714844 1052.753906 L 255.710938 1053.753906 L 256.710938 1059.738281 L 257.707031 1060.734375 L 258.703125 1065.722656 L 260.699219 1068.714844 L 260.699219 1070.710938 L 269.679688 1087.667969 L 277.660156 1098.644531 L 291.625 1112.609375 L 299.605469 1118.59375 L 308.582031 1123.582031 L 310.578125 1125.578125 L 329.53125 1133.558594 L 332.523438 1133.558594 L 337.511719 1135.550781 L 341.5 1135.550781 L 342.5 1136.550781 L 346.488281 1136.550781 L 347.488281 1137.546875 L 566.949219 1137.546875 L 567.945312 1136.550781 L 574.929688 1136.550781 L 575.925781 1135.550781 L 581.910156 1135.550781 L 582.90625 1134.554688 L 587.894531 1134.554688 L 588.894531 1133.558594 L 598.867188 1132.558594 L 599.867188 1131.5625 L 602.859375 1131.5625 L 606.847656 1129.566406 L 613.832031 1128.570312 L 614.828125 1127.570312 L 616.824219 1127.570312 L 620.816406 1125.578125 L 623.808594 1125.578125 L 629.792969 1122.585938 L 634.78125 1121.585938 L 639.769531 1118.59375 L 641.761719 1118.59375 L 646.75 1115.601562 L 648.746094 1115.601562 L 678.671875 1099.640625 L 690.644531 1091.660156 L 693.636719 1088.667969 L 697.625 1086.671875 L 701.617188 1082.683594 L 712.589844 1074.703125 L 719.570312 1067.71875 L 720.570312 1067.71875 L 736.53125 1051.757812 L 736.53125 1050.761719 L 742.515625 1044.773438 L 746.507812 1038.789062 L 750.496094 1035.796875 L 759.472656 1045.773438 L 759.472656 1046.769531 L 773.441406 1060.734375 L 773.441406 1061.734375 L 777.429688 1064.726562 L 778.425781 1066.722656 L 779.425781 1066.722656 L 785.410156 1072.707031 L 786.40625 1072.707031 L 800.375 1084.675781 L 811.347656 1091.660156 L 817.332031 1096.648438 L 820.324219 1097.644531 L 832.296875 1105.625 L 837.28125 1107.621094 L 839.277344 1109.617188 L 845.261719 1112.609375 L 847.257812 1112.609375 L 856.238281 1117.597656 L 858.230469 1117.597656 L 871.199219 1123.582031 L 873.195312 1123.582031 L 880.175781 1126.574219 L 883.171875 1126.574219 L 887.160156 1128.570312 L 894.144531 1129.566406 L 898.132812 1131.5625 L 906.113281 1132.558594 L 907.109375 1133.558594 L 912.097656 1133.558594 L 913.097656 1134.554688 L 917.085938 1134.554688 L 918.085938 1135.550781 L 933.046875 1136.550781 L 934.046875 1137.546875 L 1153.503906 1137.546875 L 1154.503906 1136.550781 L 1159.492188 1136.550781 L 1160.488281 1135.550781 L 1171.460938 1133.558594 L 1182.433594 1128.570312 L 1184.429688 1128.570312 L 1190.414062 1124.578125 L 1195.402344 1122.585938 L 1210.367188 1111.609375 L 1220.339844 1101.636719 L 1220.339844 1100.636719 L 1227.324219 1092.65625 L 1232.3125 1083.679688 L 1234.308594 1081.683594 L 1242.289062 1063.730469 L 1242.289062 1060.734375 L 1244.28125 1056.746094 L 1245.28125 1048.765625 L 1246.277344 1047.769531 L 1246.277344 1042.78125 L 1247.273438 1041.78125 L 1247.273438 829.304688 L 1246.277344 828.308594 L 1246.277344 820.328125 L 1245.28125 819.328125 L 1244.28125 806.359375 L 1242.289062 801.375 L 1242.289062 797.382812 L 1240.292969 792.394531 L 1240.292969 788.40625 L 1238.296875 784.414062 L 1238.296875 781.421875 L 1237.300781 780.425781 L 1229.320312 754.488281 L 1214.355469 722.566406 L 1202.386719 704.609375 L 1201.386719 701.617188 L 1198.394531 698.625 L 1190.414062 686.65625 L 1182.433594 677.675781 L 1182.433594 676.679688 L 1169.464844 662.714844 L 1168.46875 662.714844 L 1157.496094 651.742188 L 1156.5 651.742188 L 1145.523438 641.765625 L 1141.535156 639.769531 L 1124.578125 626.800781 L 1109.613281 618.820312 L 1107.617188 616.828125 L 1089.664062 607.847656 L 1087.667969 607.847656 L 1082.679688 604.855469 L 1071.707031 601.863281 L 1068.714844 599.867188 L 1066.71875 599.867188 L 1059.734375 596.875 L 1056.742188 596.875 L 1045.769531 592.886719 L 1042.777344 592.886719 L 1037.789062 590.890625 L 1033.800781 590.890625 L 1032.800781 589.894531 L 1028.8125 589.894531 L 1027.816406 588.894531 L 1021.828125 588.894531 L 1020.832031 587.898438 L 1014.847656 587.898438 L 1013.847656 586.902344 L 1006.867188 586.902344 L 1005.867188 585.902344 L 985.917969 585.902344 L 984.921875 584.90625 L 811.347656 584.90625 L 810.347656 585.902344 L 805.363281 585.902344 L 805.363281 658.722656 L 804.363281 659.722656 L 802.367188 669.695312 L 799.375 675.683594 L 789.402344 686.65625 L 783.414062 690.644531 L 779.425781 691.644531 L 776.433594 693.636719 L 769.449219 694.636719 L 768.453125 695.632812 L 759.472656 695.632812 L 758.476562 696.632812 L 739.523438 696.632812 L 738.527344 695.632812 L 729.546875 695.632812 L 728.550781 694.636719 L 725.558594 694.636719 L 722.566406 692.640625 L 720.570312 692.640625 L 710.59375 686.65625 L 704.609375 680.671875 L 696.628906 666.703125 L 695.632812 660.71875 L 694.632812 659.722656 L 694.632812 585.902344 L 693.636719 584.90625 L 686.652344 584.90625 L 685.65625 585.902344 L 516.074219 584.90625 L 515.074219 585.902344 L 497.117188 585.902344 L 496.121094 586.902344 L 487.144531 586.902344 L 486.144531 587.898438 L 480.160156 587.898438 L 479.164062 588.894531 L 474.175781 588.894531 L 473.179688 589.894531 L 468.191406 589.894531 L 467.191406 590.890625 L 458.214844 591.886719 L 454.222656 593.882812 L 451.230469 593.882812 L 447.242188 595.878906 L 444.25 595.878906 L 443.25 596.875 L 426.292969 601.863281 L 423.300781 603.859375 L 420.308594 603.859375 L 389.382812 618.820312 L 387.390625 620.816406 L 372.425781 628.796875 L 369.433594 631.789062 L 357.460938 639.769531 L 348.484375 647.75 L 347.488281 647.75 L 341.5 653.738281 L 340.503906 653.738281 L 320.554688 673.6875 L 320.554688 674.683594 L 305.589844 691.644531 L 301.597656 698.625 L 298.605469 701.617188 L 297.609375 704.609375 L 291.625 712.589844 L 286.636719 722.566406 L 284.640625 724.5625 L 273.667969 747.507812 L 273.667969 749.5 L 269.679688 757.480469 L 268.679688 762.46875 Z M 820.324219 706.605469 L 831.296875 699.625 L 833.292969 699.625 L 836.285156 697.628906 L 839.277344 697.628906 L 840.277344 696.632812 L 845.261719 696.632812 L 846.261719 695.632812 L 991.902344 695.632812 L 992.902344 696.632812 L 1001.878906 696.632812 L 1002.875 697.628906 L 1008.859375 697.628906 L 1009.859375 698.625 L 1013.847656 698.625 L 1014.847656 699.625 L 1022.828125 700.621094 L 1023.824219 701.617188 L 1037.789062 705.609375 L 1040.78125 707.605469 L 1042.777344 707.605469 L 1055.746094 713.589844 L 1057.742188 715.585938 L 1067.714844 720.570312 L 1074.699219 725.558594 L 1085.671875 735.535156 L 1086.671875 735.535156 L 1096.644531 745.511719 L 1096.644531 746.507812 L 1106.621094 757.480469 L 1115.597656 770.449219 L 1125.574219 789.402344 L 1125.574219 791.398438 L 1127.570312 794.390625 L 1127.570312 796.386719 L 1130.5625 803.367188 L 1130.5625 806.359375 L 1132.558594 810.351562 L 1133.554688 817.335938 L 1134.550781 818.332031 L 1134.550781 823.320312 L 1135.550781 824.316406 L 1135.550781 829.304688 L 1136.546875 830.300781 L 1136.546875 838.28125 L 1137.546875 839.28125 L 1137.546875 986.917969 L 1136.546875 987.914062 L 1136.546875 992.902344 L 1135.550781 993.898438 L 1133.554688 1001.878906 L 1130.5625 1005.871094 L 1130.5625 1007.867188 L 1120.585938 1018.839844 L 1110.609375 1024.824219 L 1108.617188 1024.824219 L 1104.625 1026.820312 L 1101.632812 1026.820312 L 1100.636719 1027.816406 L 1094.648438 1027.816406 L 1093.652344 1028.816406 L 946.015625 1028.816406 L 945.019531 1027.816406 L 938.035156 1027.816406 L 937.039062 1026.820312 L 932.050781 1026.820312 L 931.050781 1025.820312 L 927.0625 1025.820312 L 926.066406 1024.824219 L 919.082031 1023.828125 L 918.085938 1022.828125 L 912.097656 1021.832031 L 906.113281 1018.839844 L 898.132812 1016.84375 L 894.144531 1013.851562 L 890.152344 1012.855469 L 886.164062 1009.859375 L 881.175781 1007.867188 L 869.203125 999.886719 L 850.25 983.925781 L 850.25 982.925781 L 836.285156 967.964844 L 835.289062 964.972656 L 826.308594 953 L 816.335938 933.050781 L 816.335938 931.054688 L 813.339844 925.070312 L 813.339844 923.074219 L 811.347656 919.085938 L 811.347656 916.089844 L 809.351562 912.101562 L 809.351562 908.109375 L 808.355469 907.113281 L 807.355469 899.132812 L 806.359375 898.136719 L 806.359375 892.148438 L 805.363281 891.152344 L 805.363281 883.171875 L 804.363281 882.175781 L 804.363281 736.53125 L 805.363281 735.535156 L 806.359375 727.554688 L 810.347656 718.578125 L 815.335938 711.59375 Z M 679.671875 706.605469 L 684.65625 711.59375 L 689.644531 718.578125 L 693.636719 727.554688 L 694.632812 736.53125 L 695.632812 737.53125 L 695.632812 879.183594 L 694.632812 880.179688 L 694.632812 892.148438 L 693.636719 893.148438 L 693.636719 899.132812 L 692.636719 900.128906 L 692.636719 904.121094 L 691.640625 905.117188 L 690.644531 913.097656 L 688.648438 917.089844 L 688.648438 920.082031 L 687.652344 921.078125 L 686.652344 926.066406 L 682.664062 934.046875 L 682.664062 936.042969 L 672.6875 954.996094 L 655.730469 977.941406 L 637.773438 994.898438 L 615.828125 1009.859375 L 596.875 1018.839844 L 594.878906 1018.839844 L 584.902344 1022.828125 L 581.910156 1022.828125 L 580.914062 1023.828125 L 577.921875 1023.828125 L 572.933594 1025.820312 L 568.941406 1025.820312 L 567.945312 1026.820312 L 562.957031 1026.820312 L 561.960938 1027.816406 L 552.980469 1027.816406 L 551.984375 1028.816406 L 406.34375 1028.816406 L 405.34375 1027.816406 L 399.359375 1027.816406 L 398.363281 1026.820312 L 395.367188 1026.820312 L 392.375 1024.824219 L 390.382812 1024.824219 L 384.394531 1021.832031 L 376.414062 1015.847656 L 371.429688 1009.859375 L 366.441406 1000.882812 L 366.441406 998.886719 L 364.445312 995.894531 L 363.449219 985.917969 L 362.449219 984.921875 L 362.449219 840.277344 L 363.449219 839.28125 L 363.449219 830.300781 L 364.445312 829.304688 L 364.445312 823.320312 L 365.441406 822.320312 L 366.441406 813.34375 L 368.433594 809.355469 L 368.433594 806.359375 L 369.433594 805.363281 L 371.429688 797.382812 L 382.402344 774.441406 L 384.394531 772.445312 L 385.394531 769.453125 L 391.378906 760.472656 L 398.363281 752.492188 L 398.363281 751.496094 L 417.316406 732.542969 L 418.3125 732.542969 L 428.289062 723.566406 L 434.273438 720.570312 L 436.269531 718.578125 L 455.222656 708.601562 L 457.21875 708.601562 L 465.199219 704.609375 L 467.191406 704.609375 L 474.175781 701.617188 L 481.160156 700.621094 L 482.15625 699.625 L 491.132812 698.625 L 492.132812 697.628906 L 508.09375 696.632812 L 509.089844 695.632812 L 654.730469 695.632812 L 655.730469 696.632812 L 659.71875 696.632812 L 660.71875 697.628906 L 663.710938 697.628906 L 666.703125 699.625 L 668.699219 699.625 Z M 803.367188 363.449219 L 796.382812 370.433594 L 793.390625 376.417969 L 793.390625 380.40625 L 792.394531 381.40625 L 792.394531 451.234375 L 793.390625 452.230469 L 793.390625 458.21875 L 794.386719 459.214844 L 796.382812 469.191406 L 801.371094 480.164062 L 806.359375 487.144531 L 818.328125 499.117188 L 821.320312 500.113281 L 827.308594 505.101562 L 831.296875 507.097656 L 833.292969 507.097656 L 836.285156 509.09375 L 838.28125 509.09375 L 842.269531 511.085938 L 846.261719 511.085938 L 847.257812 512.085938 L 852.246094 512.085938 L 853.242188 513.082031 L 924.070312 513.082031 L 925.066406 512.085938 L 929.058594 512.085938 L 936.039062 509.09375 L 942.027344 503.105469 L 945.019531 495.125 L 945.019531 420.308594 L 944.019531 419.3125 L 944.019531 413.328125 L 943.023438 412.328125 L 943.023438 409.335938 L 942.027344 408.339844 L 940.03125 400.359375 L 930.054688 384.398438 L 920.078125 374.421875 L 911.101562 368.4375 L 909.105469 368.4375 L 902.125 364.449219 L 896.136719 363.449219 L 895.140625 362.453125 L 891.152344 362.453125 L 890.152344 361.453125 L 808.355469 361.453125 Z M 586.898438 369.433594 L 576.921875 376.417969 L 567.945312 386.394531 L 559.964844 400.359375 L 559.964844 402.355469 L 557.96875 405.347656 L 556.972656 411.332031 L 555.972656 412.328125 L 555.972656 418.316406 L 554.976562 419.3125 L 554.976562 495.125 L 558.96875 504.105469 L 563.953125 509.09375 L 574.929688 513.082031 L 645.753906 513.082031 L 646.75 512.085938 L 653.734375 512.085938 L 654.730469 511.085938 L 657.722656 511.085938 L 658.722656 510.089844 L 666.703125 508.09375 L 679.671875 501.113281 L 691.640625 490.136719 L 697.625 482.15625 L 702.613281 472.183594 L 702.613281 470.1875 L 704.609375 466.199219 L 704.609375 463.203125 L 705.605469 462.207031 L 705.605469 458.21875 L 706.605469 457.21875 L 706.605469 377.414062 L 703.613281 370.433594 L 697.625 364.449219 L 691.640625 361.453125 L 608.84375 361.453125 L 607.847656 362.453125 L 603.855469 362.453125 L 602.859375 363.449219 L 597.871094 364.449219 Z M 586.898438 369.433594 " fill-opacity="1" fill-rule="evenodd"/></g></svg>