<svg xmlns="http://www.w3.org/2000/svg" xmlns:xlink="http://www.w3.org/1999/xlink" width="2000" zoomAndPan="magnify" viewBox="0 0 1500 1499.999933" height="2000" preserveAspectRatio="xMidYMid meet" version="1.0"><defs><clipPath id="f733766285"><path d="M 322.128906 305.074219 L 719 305.074219 L 719 702 L 322.128906 702 Z M 322.128906 305.074219 " clip-rule="nonzero"/></clipPath><clipPath id="804e0bd0d5"><path d="M 353 369 L 1177.878906 369 L 1177.878906 1194.574219 L 353 1194.574219 Z M 353 369 " clip-rule="nonzero"/></clipPath></defs><g clip-path="url(#f733766285)"><path fill="#1d1d1b" d="M 718.78125 503.640625 C 559.65625 525.324219 542.148438 542.824219 520.457031 701.886719 C 498.761719 542.824219 481.253906 525.324219 322.128906 503.640625 C 481.253906 481.957031 498.761719 464.457031 520.457031 305.394531 C 542.148438 464.457031 559.65625 481.957031 718.78125 503.640625 Z M 718.78125 503.640625 " fill-opacity="1" fill-rule="nonzero"/></g><path fill="#1d1d1b" d="M 654.171875 971.378906 C 564.769531 983.457031 554.851562 993.371094 542.765625 1082.738281 C 530.679688 993.371094 520.765625 983.457031 431.363281 971.378906 C 520.765625 959.296875 530.679688 949.386719 542.765625 860.019531 C 554.851562 949.386719 564.769531 959.296875 654.171875 971.378906 Z M 654.171875 971.378906 " fill-opacity="1" fill-rule="nonzero"/><path fill="#1d1d1b" d="M 1033.007812 1004.832031 C 979.394531 1012.113281 973.507812 1017.996094 966.226562 1071.585938 C 958.945312 1017.996094 953.054688 1012.113281 899.445312 1004.832031 C 953.054688 997.550781 958.945312 991.667969 966.226562 938.078125 C 973.351562 991.667969 979.394531 997.550781 1033.007812 1004.832031 Z M 1033.007812 1004.832031 " fill-opacity="1" fill-rule="nonzero"/><g clip-path="url(#804e0bd0d5)"><path fill="#1d1d1b" d="M 1177.878906 782.113281 C 808.960938 805.964844 789.589844 825.328125 765.574219 1194.25 C 741.714844 825.480469 722.347656 806.121094 353.273438 782.113281 C 722.191406 758.261719 741.558594 738.902344 765.574219 369.980469 C 789.4375 738.75 808.804688 758.109375 1177.878906 782.113281 Z M 1177.878906 782.113281 " fill-opacity="1" fill-rule="nonzero"/></g></svg>