<svg xmlns="http://www.w3.org/2000/svg" xmlns:xlink="http://www.w3.org/1999/xlink" width="2000" zoomAndPan="magnify" viewBox="0 0 1500 1499.999933" height="2000" preserveAspectRatio="xMidYMid meet" version="1.0"><defs><clipPath id="b6e8de6b42"><path d="M 0 1.652344 L 1499 1.652344 L 1499 1500 L 0 1500 Z M 0 1.652344 " clip-rule="nonzero"/></clipPath><clipPath id="9495c4aea8"><path d="M 0 1.652344 L 1500 1.652344 L 1500 1500 L 0 1500 Z M 0 1.652344 " clip-rule="nonzero"/></clipPath></defs><g clip-path="url(#b6e8de6b42)"><path fill="#161f34" d="M 299.683594 1.652344 L 1198.730469 1.652344 C 1203.636719 1.652344 1208.535156 1.769531 1213.433594 2.011719 C 1218.335938 2.253906 1223.222656 2.613281 1228.105469 3.09375 C 1232.984375 3.574219 1237.851562 4.175781 1242.703125 4.894531 C 1247.554688 5.613281 1252.386719 6.453125 1257.195312 7.410156 C 1262.007812 8.367188 1266.789062 9.441406 1271.546875 10.632812 C 1276.304688 11.824219 1281.03125 13.132812 1285.722656 14.554688 C 1290.417969 15.980469 1295.074219 17.515625 1299.691406 19.167969 C 1304.308594 20.820312 1308.882812 22.585938 1313.414062 24.464844 C 1317.945312 26.339844 1322.425781 28.328125 1326.859375 30.425781 C 1331.292969 32.523438 1335.675781 34.726562 1340 37.039062 C 1344.324219 39.351562 1348.589844 41.765625 1352.796875 44.289062 C 1357.003906 46.8125 1361.148438 49.433594 1365.226562 52.160156 C 1369.300781 54.882812 1373.3125 57.707031 1377.25 60.628906 C 1381.191406 63.550781 1385.054688 66.566406 1388.847656 69.679688 C 1392.636719 72.789062 1396.351562 75.992188 1399.984375 79.289062 C 1403.617188 82.582031 1407.167969 85.960938 1410.636719 89.429688 C 1414.105469 92.898438 1417.488281 96.449219 1420.78125 100.085938 C 1424.074219 103.71875 1427.277344 107.429688 1430.386719 111.222656 C 1433.5 115.015625 1436.515625 118.878906 1439.4375 122.820312 C 1442.359375 126.757812 1445.183594 130.769531 1447.90625 134.847656 C 1450.632812 138.925781 1453.253906 143.066406 1455.777344 147.273438 C 1458.296875 151.480469 1460.714844 155.746094 1463.027344 160.074219 C 1465.339844 164.398438 1467.542969 168.777344 1469.640625 173.210938 C 1471.738281 177.644531 1473.722656 182.128906 1475.601562 186.660156 C 1477.476562 191.191406 1479.242188 195.765625 1480.894531 200.382812 C 1482.546875 205.003906 1484.085938 209.660156 1485.507812 214.351562 C 1486.933594 219.046875 1488.238281 223.769531 1489.429688 228.527344 C 1490.625 233.285156 1491.699219 238.070312 1492.652344 242.882812 C 1493.609375 247.691406 1494.449219 252.523438 1495.167969 257.375 C 1495.886719 262.226562 1496.488281 267.09375 1496.96875 271.976562 C 1497.449219 276.855469 1497.8125 281.746094 1498.050781 286.644531 C 1498.292969 291.542969 1498.414062 296.445312 1498.414062 301.351562 L 1498.414062 1200.449219 C 1498.414062 1205.355469 1498.292969 1210.257812 1498.050781 1215.15625 C 1497.8125 1220.054688 1497.449219 1224.945312 1496.96875 1229.824219 C 1496.488281 1234.707031 1495.886719 1239.574219 1495.167969 1244.425781 C 1494.449219 1249.277344 1493.609375 1254.109375 1492.652344 1258.917969 C 1491.699219 1263.730469 1490.625 1268.511719 1489.429688 1273.269531 C 1488.238281 1278.027344 1486.933594 1282.753906 1485.507812 1287.449219 C 1484.085938 1292.140625 1482.546875 1296.796875 1480.894531 1301.414062 C 1479.242188 1306.035156 1477.476562 1310.609375 1475.601562 1315.140625 C 1473.722656 1319.671875 1471.738281 1324.15625 1469.640625 1328.589844 C 1467.542969 1333.023438 1465.339844 1337.402344 1463.027344 1341.726562 C 1460.714844 1346.054688 1458.296875 1350.320312 1455.777344 1354.527344 C 1453.253906 1358.734375 1450.632812 1362.875 1447.90625 1366.953125 C 1445.183594 1371.03125 1442.359375 1375.042969 1439.4375 1378.980469 C 1436.515625 1382.921875 1433.5 1386.785156 1430.386719 1390.578125 C 1427.277344 1394.371094 1424.074219 1398.082031 1420.78125 1401.714844 C 1417.488281 1405.351562 1414.105469 1408.902344 1410.636719 1412.371094 C 1407.167969 1415.839844 1403.617188 1419.21875 1399.984375 1422.511719 C 1396.351562 1425.808594 1392.636719 1429.011719 1388.847656 1432.121094 C 1385.054688 1435.234375 1381.191406 1438.25 1377.25 1441.171875 C 1373.3125 1444.09375 1369.304688 1446.917969 1365.226562 1449.640625 C 1361.148438 1452.367188 1357.003906 1454.988281 1352.796875 1457.511719 C 1348.589844 1460.03125 1344.324219 1462.449219 1340 1464.761719 C 1335.675781 1467.074219 1331.292969 1469.277344 1326.859375 1471.375 C 1322.425781 1473.472656 1317.945312 1475.460938 1313.414062 1477.335938 C 1308.882812 1479.214844 1304.308594 1480.976562 1299.691406 1482.628906 C 1295.074219 1484.28125 1290.417969 1485.820312 1285.722656 1487.246094 C 1281.03125 1488.667969 1276.304688 1489.976562 1271.546875 1491.167969 C 1266.789062 1492.359375 1262.007812 1493.433594 1257.195312 1494.390625 C 1252.386719 1495.347656 1247.554688 1496.1875 1242.703125 1496.90625 C 1237.851562 1497.625 1232.984375 1498.226562 1228.105469 1498.707031 C 1223.222656 1499.1875 1218.335938 1499.546875 1213.433594 1499.789062 C 1208.535156 1500.03125 1203.636719 1500.148438 1198.730469 1500.148438 L 299.683594 1500.148438 C 294.78125 1500.148438 289.878906 1500.03125 284.980469 1499.789062 C 280.082031 1499.546875 275.191406 1499.1875 270.3125 1498.707031 C 265.429688 1498.226562 260.5625 1497.625 255.710938 1496.90625 C 250.859375 1496.1875 246.03125 1495.347656 241.21875 1494.390625 C 236.410156 1493.433594 231.625 1492.359375 226.867188 1491.167969 C 222.109375 1489.976562 217.386719 1488.667969 212.691406 1487.246094 C 208 1485.820312 203.34375 1484.28125 198.726562 1482.628906 C 194.105469 1480.976562 189.53125 1479.214844 185 1477.335938 C 180.46875 1475.460938 175.988281 1473.472656 171.554688 1471.375 C 167.121094 1469.277344 162.742188 1467.074219 158.414062 1464.761719 C 154.089844 1462.449219 149.824219 1460.03125 145.617188 1457.511719 C 141.410156 1454.988281 137.269531 1452.367188 133.191406 1449.640625 C 129.113281 1446.917969 125.105469 1444.09375 121.164062 1441.171875 C 117.226562 1438.25 113.359375 1435.234375 109.570312 1432.121094 C 105.777344 1429.011719 102.066406 1425.808594 98.429688 1422.511719 C 94.796875 1419.21875 91.246094 1415.839844 87.777344 1412.371094 C 84.308594 1408.902344 80.929688 1405.351562 77.636719 1401.714844 C 74.339844 1398.082031 71.140625 1394.371094 68.027344 1390.578125 C 64.917969 1386.785156 61.898438 1382.921875 58.976562 1378.980469 C 56.054688 1375.042969 53.234375 1371.03125 50.507812 1366.953125 C 47.785156 1362.875 45.160156 1358.734375 42.640625 1354.527344 C 40.117188 1350.320312 37.699219 1346.054688 35.390625 1341.726562 C 33.078125 1337.402344 30.871094 1333.023438 28.777344 1328.589844 C 26.679688 1324.15625 24.691406 1319.671875 22.816406 1315.140625 C 20.9375 1310.609375 19.171875 1306.035156 17.519531 1301.414062 C 15.867188 1296.796875 14.332031 1292.140625 12.90625 1287.449219 C 11.484375 1282.753906 10.175781 1278.027344 8.984375 1273.269531 C 7.792969 1268.511719 6.71875 1263.730469 5.761719 1258.917969 C 4.804688 1254.109375 3.964844 1249.277344 3.246094 1244.425781 C 2.527344 1239.574219 1.925781 1234.707031 1.445312 1229.824219 C 0.964844 1224.945312 0.605469 1220.054688 0.363281 1215.15625 C 0.125 1210.257812 0.00390625 1205.355469 0.00390625 1200.449219 L 0.00390625 301.351562 C 0.00390625 296.445312 0.125 291.542969 0.363281 286.644531 C 0.605469 281.746094 0.964844 276.855469 1.445312 271.976562 C 1.925781 267.09375 2.527344 262.226562 3.246094 257.375 C 3.964844 252.523438 4.804688 247.691406 5.761719 242.882812 C 6.71875 238.070312 7.792969 233.285156 8.984375 228.527344 C 10.175781 223.769531 11.484375 219.046875 12.90625 214.351562 C 14.332031 209.660156 15.867188 205.003906 17.519531 200.382812 C 19.171875 195.765625 20.9375 191.191406 22.816406 186.660156 C 24.691406 182.128906 26.679688 177.644531 28.777344 173.210938 C 30.871094 168.777344 33.078125 164.398438 35.390625 160.074219 C 37.699219 155.746094 40.117188 151.480469 42.640625 147.273438 C 45.160156 143.066406 47.785156 138.925781 50.507812 134.847656 C 53.234375 130.769531 56.054688 126.757812 58.976562 122.820312 C 61.898438 118.878906 64.917969 115.015625 68.027344 111.222656 C 71.140625 107.429688 74.339844 103.71875 77.636719 100.085938 C 80.929688 96.449219 84.308594 92.898438 87.777344 89.429688 C 91.246094 85.960938 94.796875 82.582031 98.429688 79.289062 C 102.066406 75.992188 105.777344 72.789062 109.570312 69.679688 C 113.359375 66.566406 117.226562 63.550781 121.164062 60.628906 C 125.105469 57.707031 129.113281 54.882812 133.191406 52.160156 C 137.269531 49.433594 141.410156 46.8125 145.617188 44.289062 C 149.824219 41.765625 154.089844 39.351562 158.414062 37.039062 C 162.742188 34.726562 167.121094 32.523438 171.554688 30.425781 C 175.988281 28.328125 180.46875 26.339844 185 24.464844 C 189.53125 22.585938 194.105469 20.820312 198.726562 19.167969 C 203.34375 17.515625 208 15.980469 212.691406 14.554688 C 217.386719 13.132812 222.109375 11.824219 226.867188 10.632812 C 231.625 9.441406 236.410156 8.367188 241.21875 7.410156 C 246.03125 6.453125 250.859375 5.613281 255.710938 4.894531 C 260.5625 4.175781 265.429688 3.574219 270.3125 3.09375 C 275.191406 2.613281 280.082031 2.253906 284.980469 2.011719 C 289.878906 1.769531 294.78125 1.652344 299.683594 1.652344 Z M 299.683594 1.652344 " fill-opacity="1" fill-rule="nonzero"/></g><g clip-path="url(#9495c4aea8)"><path stroke-linecap="butt" transform="matrix(14.984096, 0, 0, 14.984999, 0.00308035, 1.650414)" fill="none" stroke-linejoin="miter" d="M 54.261232 54.258298 L 63.194141 45.325406 C 67.897826 40.621483 67.897826 32.995106 63.194141 28.291443 C 58.490456 23.587781 50.864141 23.587781 46.160195 28.291443 L 37.227286 37.224335 " stroke="#7fc8ff" stroke-width="12.039" stroke-opacity="1" stroke-miterlimit="4"/><path stroke-linecap="butt" transform="matrix(14.984096, 0, 0, 14.984999, 0.00308035, 1.650414)" fill="none" stroke-linejoin="miter" d="M 45.742825 45.741186 L 36.809917 54.674078 C 32.105971 59.378001 32.105971 67.004118 36.809917 71.70778 C 41.513602 76.411703 49.139917 76.411703 53.843602 71.70778 L 62.77651 62.774888 " stroke="#7fc8ff" stroke-width="12.039" stroke-opacity="1" stroke-miterlimit="4"/></g></svg>